<svg xmlns="http://www.w3.org/2000/svg" xmlns:xlink="http://www.w3.org/1999/xlink" width="24.488" height="35.061" viewBox="0 0 24.488 35.061">
  <defs>
    <clipPath id="clip-path">
      <rect id="Rectangle_1615" data-name="Rectangle 1615" width="24.488" height="35.061" fill="none"/>
    </clipPath>
  </defs>
  <g id="Group_3171" data-name="Group 3171" clip-path="url(#clip-path)">
    <path id="Path_7938" data-name="Path 7938" d="M12.169,35.061c-1.483-1.9-2.976-3.747-4.4-5.649A52.463,52.463,0,0,1,1.959,19.8,20.9,20.9,0,0,1,.13,14.011,11.909,11.909,0,0,1,2.514,4.836,11.982,11.982,0,0,1,10.449.142a12.263,12.263,0,0,1,13.6,8.837,13.1,13.1,0,0,1-.277,7.577,36.648,36.648,0,0,1-3.89,8.176,77.083,77.083,0,0,1-7.524,10.162c-.026.03-.06.053-.192.167M7.884,12.227A4.362,4.362,0,1,0,12.3,7.9a4.336,4.336,0,0,0-4.412,4.324" transform="translate(0 0)" fill="#1a1818"/>
  </g>
</svg>
