<?xml version="1.0" encoding="utf-8"?>
<!-- Generator: Adobe Illustrator 28.0.0, SVG Export Plug-In . SVG Version: 6.00 Build 0)  -->
<svg version="1.1" id="Layer_1" xmlns="http://www.w3.org/2000/svg" xmlns:xlink="http://www.w3.org/1999/xlink" x="0px" y="0px"
	 viewBox="0 0 1280 800" style="enable-background:new 0 0 1280 800;" xml:space="preserve">
<g id="XMLID_34_">
	<g id="XMLID_38_">
		<path id="XMLID_73_" d="M0,738.63c135.9-5.55,255.31-76.94,360.43-148.17c26.4-17.89,52.3-36.27,77.97-54.79
			c19.08-13.77,39.71-29.9,63.81-34.11c36.31-6.34,56.29,23.19,71.7,49.35c19.82,33.63,36.67,69.84,67.28,95.69
			c44.14,37.26,99.79,37.05,150.31,10.12c71.64-38.19,122.45-103.26,189.52-145.51c90.93-57.28,201.56-23.89,298.97-26.24
			c0,2.23,0,3.3,0,5.3c-96.8,1.39-207.33-33.61-297.93,23.57C913.25,557.26,863.22,626,790.68,666.8
			c-51.33,28.87-106.47,28.01-150.03-11.96c-29.15-26.75-43.91-62.99-61.67-97.16c-13.38-25.74-30.68-54.99-65.9-48.49
			c-23.79,4.39-44.45,20.54-63.36,34.14c-26.17,18.83-52.53,37.58-79.37,55.88C262.83,672.54,139.62,749.59,0,756.09
			C0,749.11,0,745.61,0,738.63z"/>
		<path id="XMLID_72_" d="M0,709.88c130.71-3.63,244.67-66.22,346.56-134.45c25.86-17.32,51.16-35.22,76.2-53.31
			c19.17-13.85,40.29-29.28,64.82-32.22c37.19-4.45,61.29,24.96,80.14,50.76c24.01,32.86,44.77,69.64,79.01,93.6
			c46.68,32.66,103.92,29.19,153.53,3.52c70.48-36.48,122.07-97.97,188.46-137.95c87.79-52.87,197.89-21.71,291.27-24.77
			c0,2.5,0,3.7,0,6.01c-97.44,2.8-207.94-29.69-298.75,27.56c-65.94,41.57-117.1,104.39-188.07,141.07
			c-49.97,25.83-105.98,26.85-150.61-8.52c-31.77-25.18-50.12-61.34-71.5-94.59c-16.99-26.43-38.88-56.08-76.08-49.81
			c-24.38,4.11-45.06,20.21-64.32,34.13c-25.32,18.29-50.91,36.4-77.01,53.98C250.17,654.64,133.32,722.08,0,726.88
			C0,720.08,0,716.68,0,709.88z"/>
		<path id="XMLID_71_" d="M0,681.14c124.12-1.34,231.79-53.48,329.78-117.69c25.14-16.47,49.68-33.63,73.87-51.06
			c20.08-14.47,41.74-29.64,67.38-32.47c40.18-4.43,69.44,25.02,92.93,51.45c28.35,31.89,53.72,68.46,91.57,90.39
			c48.1,27.87,106.11,21.93,154.7-2.1c68.71-33.98,120.08-91.03,183.73-130.15c85.46-52.52,194.64-22.41,286.03-25.58
			c0,2.68,0,3.99,0,6.54c-92.69,3.18-202.5-27.46-289.44,25.32c-65.2,39.58-116.79,99.08-186.54,134.38
			c-49.15,24.88-106.72,29.33-153.99-1.28c-35.72-23.13-58.36-59.82-84.18-92.26c-20.76-26.09-47.01-55.52-85.4-51.08
			c-24.98,2.88-46.29,18.21-65.82,32.31c-24.67,17.82-49.65,35.41-75.2,52.37C239.2,636.77,127.92,694.98,0,697.66
			C0,691.05,0,687.74,0,681.14z"/>
		<path id="XMLID_70_" d="M0,652.39c117.48,1.01,218.98-40.26,313.26-100.32c24.45-15.57,48.22-31.95,71.6-48.67
			c21.18-15.16,43.62-30.02,70.52-32.77c43.69-4.47,78.39,25.12,106.94,51.99c32.94,31,63.39,67.32,105.29,87.03
			c49.54,23.31,108.26,14.33,156.12-8.79c66.83-32.28,117.28-85.61,178.36-124.13c82.08-51.76,189.65-22.18,277.92-24.91
			c0,2.8,0,4.18,0,6.88c-90.14,3.03-198.68-26.79-282.76,25.44c-62.5,38.82-113.54,94.15-181.43,127.29
			c-48.23,23.55-106.57,30.76-155.31,4.95c-39.6-20.97-67.16-57.43-97.52-88.91c-25.69-26.64-57.33-56.14-99-51.69
			c-26.18,2.79-48.15,17.83-68.7,32.6c-23.83,17.12-48.02,33.94-72.85,50.02C226.1,620.76,121.18,668.14,0,668.44
			C0,662.02,0,658.81,0,652.39z"/>
		<path id="XMLID_66_" d="M0,623.65c110.93,3.23,206.45-26.98,297.32-82.84c44.39-27.29,89.51-74.22,143.47-79.31
			c47.63-4.5,87.88,25.39,121.7,52.57c37.64,30.25,73.48,66.33,119.68,83.7c51,19.17,110.15,6.6,157.63-16.2
			c64.9-31.17,113.9-81.3,172.53-119.46c77.9-50.7,183.39-21.26,267.68-23.15c0,2.85,0,4.26,0,7.04
			c-86.54,2.39-193.2-27.09-273.45,24.22c-59.95,38.33-109.79,90.14-175.74,121.85c-47.64,22.91-106.6,33.47-156.81,12.12
			c-43.85-18.65-76.74-54.85-111.83-85.49c-30.95-27.02-68.19-56.73-113.64-52.24c-53.28,5.26-99.06,53.1-142.68,80.47
			C213.2,605.07,114.44,641.27,0,639.22C0,632.99,0,629.88,0,623.65z"/>
		<path id="XMLID_65_" d="M0,594.9c105.6,5.17,196.31-14.57,284.62-67.14c46.16-27.47,90.38-73.07,146.8-76.04
			c50.31-2.65,94.78,26.98,132.74,53.67c41.33,29.05,81.64,63.34,130.44,79.36c52.57,17.25,111.75,1.46,159.92-21.33
			c63.47-30.02,111.77-76.93,167.65-115.9c73.19-51.03,177.44-21.11,257.82-21.93c0,2.84,0,4.25,0,7.05
			c-82.17,1.41-186.57-28.07-262.28,22.05c-57.5,38.06-105.67,86.79-169.65,117.58c-47.45,22.84-106.63,37.26-158.34,19.88
			c-48.29-16.24-86.73-52.23-126.62-82.19c-36.35-27.3-79.22-57.4-128.83-52.92c-54.55,4.93-99.17,51.09-144.24,78.29
			C200.73,589.25,107.87,614.17,0,610C0,603.96,0,600.94,0,594.9z"/>
		<path id="XMLID_64_" d="M0,566.16c49.98,3.32,100.5,5.6,149.56-3.71c43.48-8.25,83.67-25.73,121.17-47.1
			c47.89-27.29,91.07-71.41,149.07-73.97c54.55-2.41,104.26,27.9,147.25,54.85c45.83,28.73,91.37,62.93,144.51,76.83
			c54.6,14.28,112.82-5.88,161.57-29.35c28.89-13.91,56.19-30.75,82.1-49.1c27.85-19.72,52.08-43.61,79.36-63.49
			c68.11-49.62,169.99-19.45,245.4-19.1c0,2.77,0,4.16,0,6.92c-77.95,0.25-181.04-29.79-251.75,20.56
			c-54.7,38.95-102.13,84.44-164.62,114.24c-48.44,23.1-107.19,40.98-160.77,25.29c-50.95-14.92-93.87-49.2-137.42-78.06
			c-40.46-26.81-87.54-56.74-139.93-54.19c-57.2,2.79-100.9,47.62-147.9,75.02C190.78,572.43,102.56,586.73,0,580.78
			C0,574.93,0,572.01,0,566.16z"/>
		<path id="XMLID_62_" d="M0,537.41c47.84,3.82,96.53,8.97,144.03,3.11c41.02-5.06,78.97-19.71,114.38-38.99
			c49.51-26.95,91.82-70.06,151.34-71.91c58.82-1.83,113.27,29.24,161.09,56.6c50.07,28.64,100.59,62.94,157.89,74.88
			c56.69,11.81,113.3-12.76,162.9-37.05c27.88-13.65,54.57-29.5,79.77-47.17c27.05-18.95,49.65-42.29,75.55-62.09
			c63.04-48.19,162.65-17.78,233.06-16.33c0,2.65,0,3.98,0,6.65c-72.85-0.92-173.55-31.22-239.07,17.67
			c-26.58,19.83-49.98,43.46-77.42,62.79c-25.55,18.01-52.53,34.35-80.91,48.13c-49.16,23.88-106.64,46.28-162.3,33.32
			c-55.28-12.88-103.39-47.1-151.42-75.76c-45.52-27.16-97.64-57.76-154.39-55.65c-58.76,2.18-101.54,45.81-150.23,72.92
			c-36.4,20.27-75.43,36.29-117.62,42.89c-48.24,7.54-97.81,3.75-146.64,0.13C0,545.9,0,543.07,0,537.41z"/>
		<path id="XMLID_61_" d="M0,508.67c88.97,7.75,167.67,18.95,248.01-22.82c51.07-26.55,92.41-68.86,153.43-69.88
			c62.83-1.05,121.66,31.23,173.79,59.09c53.89,28.81,109.01,63.47,170.13,73.66c58.73,9.79,113.15-19.07,163.74-44.1
			c26.9-13.31,52.99-28.09,77.52-44.98c26.33-18.13,47.3-40.73,71.84-60.45c58.25-46.83,155.83-16.35,221.54-14
			c0,2.48,0,3.74,0,6.27c-67.88-1.95-166.39-32.43-226.87,15.03c-25.18,19.76-46.92,42.74-73.58,61.27
			c-24.84,17.27-51.21,32.58-78.58,46.06c-50.11,24.7-105.63,51.54-163.41,40.85c-59.34-10.98-112.34-45.44-164.47-74.13
			c-50.14-27.6-106.96-59.26-167.92-57.8c-60.32,1.45-102.12,44.1-152.47,70.84c-34.46,18.31-71.32,31.57-111.16,35.07
			c-46.8,4.11-94.58-2.33-141.54-6.3C0,516.87,0,514.14,0,508.67z"/>
		<path id="XMLID_60_" d="M0,479.92c84.92,7.35,161.62,26.86,239.85-12.16c52.42-26.15,92.76-67.98,155.18-67.89
			c66.45,0.09,129.05,33.92,184.89,62.5c57.15,29.25,116.32,64.61,180.79,73.35c60.55,8.21,112.34-24.74,163.96-50.17
			c25.96-12.79,51.51-26.34,75.42-42.29c25.73-17.16,45.13-38.74,68.33-58.37c54-45.7,149.97-15.41,211.57-12.47
			c0,2.28,0,3.43,0,5.77c-63.39-2.71-160.04-33.13-215.91,13.05c-23.81,19.68-43.92,41.77-69.91,59.4
			c-24.18,16.4-49.98,30.55-76.36,43.6c-51.15,25.3-104.19,56.41-163.95,47.52c-63-9.37-120.38-44.36-176.12-73.37
			c-54.22-28.22-115.18-61.29-180.02-60.81c-61.8,0.46-102.6,42.47-154.43,68.8C164.14,516.6,86.65,500.74,0,493.12
			C0,487.84,0,485.2,0,479.92z"/>
		<path id="XMLID_59_" d="M0,451.18c81.96,6.29,157.77,32.58,234.26-4.39c53.48-25.85,92.75-67.52,156.41-65.98
			c69.53,1.68,135.12,37.45,193.93,67.02c59.67,30,122.2,66.45,189.46,74.13c61.92,7.08,110.83-29.74,163.41-54.93
			c25.08-12.02,50.16-24.1,73.54-38.85c25.25-15.93,43.22-36.16,65.1-55.6c50.54-44.91,145.46-15.25,203.89-12.12
			c0,2.04,0,3.07,0,5.19c-59.7-3.1-155-33.1-206.96,12.11c-22.46,19.54-41.04,40.41-66.49,56.92
			c-23.6,15.32-48.88,28.09-74.34,40.48c-52.17,25.39-102.38,60.53-163.76,53.01c-66.11-8.11-127.25-44.01-185.9-73.64
			c-57.6-29.1-121.97-63.95-190.21-64.87c-63.14-0.85-102.89,40.85-155.94,66.81C159.19,494.24,83.12,470.74,0,463.9
			C0,458.81,0,456.27,0,451.18z"/>
		<path id="XMLID_58_" d="M0,422.43c80.31,4.56,156.3,35.78,231.59,0.01c54.15-25.73,92.28-67.59,156.94-64.15
			c71.9,3.82,139.53,41.93,200.43,72.79c61.29,31.06,126.35,69.08,195.7,76.17c62.64,6.4,108.54-34.02,161.94-58.07
			c24.3-10.94,48.95-21.2,71.93-34.42c24.9-14.32,41.63-32.82,62.24-51.94c48.12-44.62,142.72-16.13,199.22-13.3
			c0,1.76,0,2.67,0,4.52c-57.15-3.02-151.79-32.09-200.79,12.58c-21.15,19.28-38.37,38.56-63.41,53.62
			c-23.13,13.92-47.96,25-72.58,36.44c-53.08,24.67-100.26,63.59-162.69,56.95c-68.56-7.28-132.65-44.57-193.37-75.14
			c-60.13-30.27-127.02-67.33-198-70.17c-64.27-2.57-102.89,39.17-156.81,64.92c-75.73,36.16-151.5,6.8-232.35,1.42
			C0,429.78,0,427.33,0,422.43z"/>
		<path id="XMLID_57_" d="M0,393.69c81.42,2.16,158.42,36.38,234.24-0.48c49.71-24.17,86.27-64.51,145.76-62.03
			c76.63,3.19,148.59,46.94,212.71,80.6c62.42,32.77,129.3,73.37,200.69,79.66c61.17,5.39,102.34-36.75,155.12-58.2
			c23.88-9.71,48.46-17.73,71.53-28.94c25.21-12.25,41.16-27.79,60.61-46.98c46.9-46.26,142.72-19.43,199.33-17.44
			c0,1.46,0,2.22,0,3.78c-56.53-2.43-152.07-30.13-199.22,15.92c-19.92,19.45-36.22,35.96-61.54,49.17
			c-23.15,12.08-47.87,21.09-72,31.42c-52.61,22.51-94.9,63.33-156.28,57.91c-70.98-6.27-137.36-45.9-199.69-78.07
			c-63.84-32.95-135.58-75.38-211.69-77.32c-59.33-1.52-96.23,38.47-146,62.58C157.67,442.05,81.32,408.73,0,405.46
			C0,400.75,0,398.4,0,393.69z"/>
		<path id="XMLID_56_" d="M0,364.94c81.81,1.03,161.35,40.14,237.94,4.25c49.91-23.39,85.82-64.52,145.31-60.88
			c76.51,4.68,147.89,49.89,211.57,84.37c61.79,33.46,128.46,75.2,199.7,81.66c60.38,5.48,99.62-38.18,153.14-55.92
			c23.4-7.76,47.7-12.92,70.53-21.89c25.41-9.98,40.69-23.55,59.54-42.29c47.43-47.16,144.25-23.98,202.27-22.73
			c0,1.29,0,1.94,0,3.24c-57.3-1.38-153.77-26.38-200.83,20.41c-18.95,18.83-34.44,32.9-59.61,43.75
			c-22.91,9.87-47.34,16.17-70.88,24.77c-53.1,19.39-92.87,62.89-153.52,57.42c-71.57-6.45-138.63-48.18-200.82-81.65
			c-64.09-34.49-135.88-79.7-212.77-84.38c-59.59-3.62-95.7,37.28-145.37,61.31C160.15,413.16,81.74,377.12,0,376.24
			C0,371.72,0,369.46,0,364.94z"/>
		<path id="XMLID_55_" d="M0,336.2c51.37,0.39,96.13,11.39,144.65,23.21c35.42,8.63,67.26,7.12,100.63-7.25
			c51.11-22.01,85.9-63.18,146.12-59.15c74.9,5.01,143.92,50.18,205.6,85.03c59.13,33.41,123.35,75.3,192.47,81.33
			c60.14,5.24,97.06-40.14,151.19-55c23.17-6.36,47.16-8.9,70.16-15.36c26.53-7.46,42.07-19.91,63.1-36.47
			c55.76-43.92,141.34-33.01,206.1-30.87c0,1.72,0,2.54,0,4.09c-62.23-1.91-151.64-17.77-204.42,27.4
			c-20.24,17.32-35.53,30.19-61.62,38.61c-22.9,7.39-46.97,10.95-70.19,17.76c-54.03,15.84-91.61,60.6-151.95,55.27
			c-70-6.18-135.25-48-195.48-81.44c-62.54-34.71-132.55-79.88-208.15-84.76c-60.02-3.87-95.19,37.24-145.89,59.85
			c-32.88,14.66-64.67,17.63-100.16,9.98C94.4,358.12,50.16,347.48,0,347.03C0,342.69,0,340.53,0,336.2z"/>
		<path id="XMLID_54_" d="M0,307.45c54.8,0.33,101.35,12.46,151.96,28.48c35.31,11.18,67.48,13.85,102.45,0.36
			c51.95-20.03,85.98-61.59,146.25-57.12c72.57,5.39,138.45,50.59,197.27,85.78c55.67,33.29,116.68,75.45,183.03,81.09
			c59.69,5.07,94.44-42.78,149.02-54.57c23.35-5.04,47.3-5.21,70.65-9.33c27.83-4.91,44.58-16.18,67.6-31.17
			c62.55-40.72,140.78-44.16,211.77-42.15c0,2.03,0,3.02,0,4.92c-68.83-2.17-149.26-4.07-209.54,37.77
			c-22.31,15.49-38.55,27.19-65.89,33.02c-23.2,4.94-47.14,5.95-70.38,11.46c-54.45,12.89-89.93,59.81-149.83,54.68
			c-67.41-5.77-129.66-47.82-186.65-81.17c-59.94-35.07-127.03-80.25-200.51-85.5c-60.32-4.31-94.58,37.08-146.27,57.88
			c-34.36,13.83-66.37,12.7-101.71,2.44C99.37,329.84,53.53,318.14,0,317.81C0,313.66,0,311.59,0,307.45z"/>
		<path id="XMLID_53_" d="M0,278.71c58.51,0.41,107.34,13.94,160.06,34.31c35.28,13.63,68.1,20.8,104.97,8.44
			c52.43-17.58,86.08-59.8,145.83-54.85c69.69,5.77,131.78,51.09,187.07,86.55c51.56,33.07,108.77,75.6,171.83,80.89
			c58.9,4.94,91.87-45.68,146.67-54.5c23.86-3.84,47.99-1.75,71.83-3.69c29.31-2.39,47.77-12.36,72.83-26.31
			c68.07-37.9,142.49-56.91,218.92-55.91c0,2.23,0,3.32,0,5.46c-74.64-1.43-150.04,12.13-216.32,50.94
			c-24.35,14.26-42.18,24.68-70.96,27.94c-23.66,2.67-47.7,1.35-71.36,5.59c-54.74,9.83-88.3,59.47-147.5,54.49
			c-64.24-5.4-122.82-47.79-175.85-80.95c-56.57-35.37-120.03-80.65-190.76-86.29c-59.99-4.78-93.72,37.19-146.02,55.65
			c-36.19,12.77-68.76,7.18-104.04-5.62C105.2,301.97,57.21,288.96,0,288.59C0,284.63,0,282.66,0,278.71z"/>
		<path id="XMLID_52_" d="M0,249.96c62.46,0.63,113.96,15.81,168.81,40.61c35.35,15.98,69.1,27.89,108.06,16.92
			c52.59-14.81,86.24-57.85,145.01-52.41c66.42,6.14,124.23,51.62,175.43,87.29c46.95,32.71,99.87,75.72,159.28,80.66
			c57.83,4.81,89.24-48.7,144.15-54.74c24.6-2.71,49.07,1.58,73.51,1.66c30.92,0.1,51.38-8.48,78.58-21.78
			c72.94-35.67,145.97-70.87,227.17-71.53c0,2.31,0,3.46,0,5.72c-79.69,0.06-152.99,29.93-224.37,66.25
			c-26.48,13.48-46.27,22.52-76.65,23.24c-24.24,0.57-48.58-3.01-72.92,0.06c-54.88,6.93-86.79,59.48-144.99,54.63
			c-60.64-5.05-115.01-47.89-163.51-80.74c-52.59-35.61-111.84-81.03-179.37-87.06c-59.13-5.27-92.74,37.49-145.31,53.23
			c-38.26,11.46-71.68,1.12-107-14.11C111.74,274.52,61.14,259.91,0,259.37C0,255.6,0,253.72,0,249.96z"/>
		<path id="XMLID_51_" d="M0,221.22c66.62,0.96,121.06,18.06,178.07,47.3c35.55,18.23,70.42,35.03,111.59,25.72
			c52.5-11.88,86.48-55.77,143.94-49.86c62.93,6.48,116.1,52.14,162.83,87.93c42,32.17,90.28,75.78,145.8,80.35
			c25.37,2.09,47.16-6.7,66.48-22.12c22.98-18.34,45.04-31.22,74.99-33.09c25.42-1.59,50.5,4.63,75.51,6.83
			c32.46,2.86,55.41-4.65,84.67-17.47c77.81-34.11,150.53-85.7,236.13-88.34c0,2.31,0,3.46,0,5.74
			c-84.25,2-157.03,48.5-233.29,83.02c-28.55,12.93-50.81,20.88-82.75,18.8c-24.82-1.62-49.73-7.18-74.87-5.24
			c-29.71,2.29-51.67,15.09-74.64,33.16c-19.72,15.51-42,24-67.68,21.88c-56.75-4.69-106.5-48.1-150.07-80.46
			C548.55,299.6,493.91,254,429.88,247.62c-57.89-5.77-91.74,37.86-144.29,50.66c-40.47,9.86-74.98-5.41-110.45-22.95
			C118.81,247.47,65.3,231,0,230.15C0,226.58,0,224.79,0,221.22z"/>
		<path id="XMLID_50_" d="M0,192.47c70.93,1.39,128.48,20.62,187.67,54.29c35.9,20.42,72,42.17,115.42,34.76
			c52.24-8.92,86.82-53.63,142.77-47.26c59.37,6.76,107.69,52.61,149.71,88.42c36.85,31.4,80.27,75.74,131.8,79.9
			c24.36,1.97,44.52-7.88,62.5-22.92c22.98-19.22,45.47-32.36,76.16-32.92c26.38-0.48,52,7.9,77.64,11.92
			c34.13,5.35,59.33-0.67,90.9-13.26c48.36-19.29,91.94-42.76,135.6-69.86c35.38-21.96,68.18-33.66,109.82-35.85
			c0,2.22,0,3.33,0,5.55c-40.9,1.9-74.15,12.71-109.55,33.34c-43.27,25.21-86.21,48.02-133.13,67.24
			c-30.88,12.65-55.42,19.11-89.06,14.5c-25.46-3.49-50.92-11.24-77.02-10.43c-30.48,0.95-52.83,14.01-75.81,32.96
			c-18.38,15.16-39.02,24.68-63.69,22.67c-52.71-4.29-97.58-48.4-135.95-80.05c-43.42-35.81-93.18-81.61-153.59-88.29
			c-56.41-6.24-90.79,38.24-143.12,48.03c-42.75,8-78.49-12.29-114.27-32.08C126.27,220.77,69.65,202.19,0,200.93
			C0,197.55,0,195.85,0,192.47z"/>
		<path id="XMLID_49_" d="M0,163.73c75.36,1.9,136.11,23.44,197.48,61.51c36.4,22.58,73.77,49.27,119.43,43.97
			c52-6.03,87.16-51.27,141.66-44.67c55.83,6.76,99.4,53.08,136.53,88.69c31.67,30.37,70.14,75.56,117.7,79.24
			c23.33,1.81,41.85-9.21,58.48-23.82c22.67-19.93,46.05-33.88,77.26-32.74c27.43,1.01,53.37,11.22,79.71,17.03
			c35.75,7.88,63.14,3.41,97.08-9.04c53.17-19.5,99.35-45.12,143.97-78.68c35.23-26.5,66.33-41.14,110.71-44.32c0,2.07,0,3.1,0,5.18
			c-43.59,2.91-75.19,16.75-110.47,41.99c-44.41,31.77-89.81,56.8-141.66,76.25c-33.28,12.49-60.07,17.39-95.38,10.22
			c-26.18-5.32-51.99-14.93-79.15-15.6c-31.04-0.76-54.25,13.11-76.97,32.79c-17,14.74-35.97,25.42-59.59,23.56
			c-48.65-3.82-88.5-48.76-121.6-79.45c-38.45-35.64-83.39-81.94-140.17-88.64c-54.92-6.48-89.87,38.56-141.96,45.39
			c-45.04,5.9-82.06-19.42-118.31-41.4C133.98,194.35,74.12,173.46,0,171.71C0,168.52,0,166.92,0,163.73z"/>
		<path id="XMLID_45_" d="M0,134.98c79.03,2.41,143.2,25.88,206.12,68.04c36.55,24.49,75.2,56.19,122.41,54.25
			c55.18-2.26,92.42-52.56,149.46-41.2c49.46,9.85,86.14,53.62,117.36,87.6c26.26,28.58,59.97,74.36,102.96,78.39
			c24.95,2.34,42.37-12.99,58.99-28.32c22.12-20.4,46.76-32.03,77.53-28.76c28.14,2.99,54.21,15.31,81.04,22.63
			c37.68,10.28,68.42,5.87,105.04-6.77c56.52-19.51,104.56-47.36,148.58-86.46c34.55-30.68,63.69-47.65,110.53-51.66
			c0,1.85,0,2.78,0,4.66c-46.06,3.79-75.72,20.09-110.38,49.63c-43.99,37.49-91.22,64.84-146.6,84.29
			c-35.98,12.63-66.18,17.45-103.43,7.87c-26.69-6.86-52.68-18.62-80.59-21.24c-30.66-2.88-55.18,8.72-77.33,28.92
			c-17,15.5-34.74,30.4-60,28c-43.97-4.18-78.93-49.7-106.47-78.66c-32.39-34.05-70.27-77.81-120.54-87.63
			c-57.48-11.24-94.43,38.84-149.75,41.88c-46.64,2.57-84.98-27.89-121.34-51.82C141.2,167.58,77.87,144.76,0,142.49
			C0,139.49,0,137.98,0,134.98z"/>
		<path id="XMLID_44_" d="M0,106.24c83.44,2.99,150.88,28.95,215.86,75.37c37.32,26.66,77.12,63.01,126.41,63.56
			c54.81,0.61,93.08-50.46,148.61-38.68c46.59,9.88,78.8,53.63,105.75,87.27c21.41,26.72,50.76,74.15,90.03,77.17
			c23.91,1.84,40.04-14.88,55.39-29.65c21.92-21.1,46.92-32.81,77.97-28.01c28.93,4.48,55.19,19,82.45,28.09
			c39.14,13.06,71.81,10.23,110.87-2.39c60.72-19.62,112.02-49.2,155.88-94.3c11.93-12.27,23.28-25.29,37.06-35.53
			c22.58-16.78,46.38-20.85,73.72-23.44c0,1.59,0,2.39,0,4.02c-27.07,2.51-50.75,6.53-73.36,22.73
			c-13.83,9.92-25.37,22.56-37.41,34.53c-43.94,43.66-94.42,72.85-154.14,92.46c-38.47,12.63-70.69,15.86-109.5,3.49
			c-27.17-8.66-53.4-22.63-82.16-26.73c-30.99-4.42-55.93,7.28-77.91,28.22c-15.68,14.94-32.04,31.23-56.23,29.31
			c-40.11-3.18-70.6-50.36-93.1-77.5c-27.96-33.73-61.24-77.5-108.49-87.38c-55.87-11.68-93.89,39.2-148.77,39.28
			c-48.79,0.07-88.33-35.15-125.44-61.28C149.02,141.45,82.35,116.12,0,113.27C0,110.46,0,109.05,0,106.24z"/>
		<path id="XMLID_43_" d="M0,77.49c87.83,3.58,158.39,32.09,225.37,82.67c38.18,28.83,78.93,69.7,130.22,72.82
			c54.71,3.33,93.88-48.43,148.32-36.38c44.16,9.78,72.29,53.36,95.38,86.57c17.3,24.89,42.21,73.31,78.28,75.57
			c22.8,1.42,38.3-17.05,52.36-31.15c21.62-21.68,46.67-33.42,77.77-26.96c29.54,6.14,55.73,22.94,83.22,33.86
			c40.31,16.01,74.63,14.86,116.06,2.36c64.57-19.48,119.35-50.43,162.59-101.15c11.44-13.43,21.97-27.85,35.46-39.33
			c22.34-19.02,46.61-23.17,74.98-25.92c0,1.29,0,1.95,0,3.29c-28.15,2.73-52.31,6.89-74.73,25.42
			c-13.56,11.21-24.29,25.33-35.85,38.5c-43.42,49.47-97.39,80.15-161.12,99.69c-40.9,12.54-74.87,14.08-114.94-1.24
			c-27.45-10.49-53.69-26.77-83.11-32.51c-31.11-6.07-56.19,5.67-77.88,27.23c-14.34,14.25-29.95,32.32-52.99,30.79
			c-36.76-2.44-62.66-50.65-80.84-75.97c-23.92-33.32-52.94-76.95-97.61-86.77c-54.65-12.01-93.62,39.6-148.33,36.88
			c-50.84-2.53-91.4-42.38-129.37-70.71C156.69,115.42,86.83,87.5,0,84.05C0,81.43,0,80.12,0,77.49z"/>
		<path id="XMLID_41_" d="M0,48.75c92.11,4.15,165.66,35.21,234.52,89.86c39.04,30.99,80.57,76.21,133.71,81.96
			c54.97,5.95,94.84-46.48,148.75-34.34c42.28,9.53,66.89,52.68,86.68,85.46c13.88,22.99,34.79,72.19,68.15,73.53
			c21.83,0.88,37.14-19.31,50.11-32.84c21.19-22.1,45.85-33.81,76.76-25.51c29.89,8.03,55.67,27.21,83.15,40.03
			c41.09,19.18,76.71,19.82,120.4,7.6c67.92-19.01,126.36-50.84,168.51-106.71c10.86-14.4,20.44-30.02,33.51-42.56
			c21.9-21.01,46.6-24.95,75.76-27.64c0,0.97,0,1.47,0,2.5c-29.02,2.72-53.63,6.74-75.64,27.35
			c-13.17,12.33-22.96,27.72-33.96,41.93c-42.41,54.82-100.07,86.52-167.33,105.66c-43.22,12.3-78.6,12.05-119.56-6.44
			c-27.5-12.41-53.4-31.08-83.24-38.69c-30.97-7.9-55.76,3.83-77.05,25.85c-13.18,13.64-28.49,33.47-50.51,32.47
			c-33.89-1.55-55.6-50.61-70.14-74c-20.43-32.87-45.73-76.14-88.36-85.73c-53.97-12.15-93.71,40.15-148.59,34.74
			c-52.76-5.19-94.14-49.51-133-80.04C164.15,89.39,91.22,58.87,0,54.83C0,52.4,0,51.18,0,48.75z"/>
	</g>
</g>
</svg>
