<?xml version="1.0" encoding="utf-8"?>
<svg version="1.1" id="Layer_1" xmlns="http://www.w3.org/2000/svg" x="0px" y="0px"
     viewBox="0 0 3007.8 633.9"   xml:space="preserve">
    <style>
 .line {
  fill-opacity: 0;
  stroke-width: 6;
  stroke-linecap: round;
  stroke-miterlimit: 8;
}
 .line.line1 {
  stroke: #076EFF;
}
 .line.line2 {
  stroke: #4FABFF;
}
 .line.line3 {
  stroke: #B1C5FF;
}
 .line.line4 {
  stroke: #FFB7C5;
}
 .line.line5 {
  stroke: #FFDDB7;
}
    </style>
    <path class="line line1" d="M3,3.1C364.2,3,591.8-6.9,785.4,165.4
	c61.5,54.7,112.5,91.6,156.4,113.4l-0.2-0.1c34,18.2,63.8,27.6,90.6,29.5c54.8,3.6,78.7-11,116.2-1.6c37.4,9.5,75.6,55.9,120.1,36.1
	c47.1-20.2,74-61.5,115.8-49.8c35.4,9.5,75.1,73.8,123.8,55.1c50.4-18.5,75.6-73.4,127.7-53.9c51.3,19.5,68.5,60.3,111.8,53.9
	c42.4-6.2,64.1-55.7,134.2-43.5c42.6,7.3,56.7,23.8,99.5,11.8c54.9-14.3,158.9-36.5,281.1-150.6C2423.9,15.1,2565.7,8.2,3004.9,8.2"
    />
    <path class="line line2" d="M3.1,162c325.1,0,589.5,0.4,785,85.8c28.6,12.5,53.9,22.9,77.1,31.5l-7.3-2.7
	c65.2,24.8,112.5,34.8,168.5,34.9c63.5-0.4,84.2-3.3,115.8,12.6c41.3,21.6,71.8,22.4,111.5-8.2c57.6-44.3,77.9-29,125,9.3
	c45,36.4,73.1,27.4,124.1-11.7c54.1-41.7,83.3-24.6,128.2,11.8c46.7,37.8,68.9,24.1,112.1-6.1c62.9-43.9,91.2-13.7,135,1.6
	c43.8,15.3,54.7,7,99.6-3.8c53.1-13.4,157.7-12.6,282.1-71.4c152.3-70.9,304.4-83.8,745-83.8"/>
    <path class="line line3" d="M3.1,318c358,0,577.9,0,764.7,0.3h6.3c4.7,0,9.4,0,14,0c133.9,0.3,174.7-8.5,238.3-6.5
	c56.4,1.8,74.7,19.6,115.8,22.9c42.9,3.5,80.3-46.1,120.4-44.6c39.9,1.4,70.1,55.8,116.1,59.7c45.9,4,76.6-56.4,124.2-61.8
	s82.9,62.5,128.2,61.7c44.6-0.7,73.4-51.4,112.1-58.8c43.7-8.4,82.8,47.9,134.7,43.9c42.5-3.1,60.9-27.3,99.6-23.3
	c56.9,6,139.4,6.4,282.4,6.8c149.4,0.5,304.4-0.7,744.9-0.7"/>
    <path class="line line4" d="M3.1,630.4c223.7,0.1,442.5,9.3,621.5-59.5l13.3-5.3c56.1-23,108.1-54.2,154.9-96.1
	c107.4-96.1,180.2-136.2,239.1-136c58.9,0.2,74.4,14.7,117.1-8.7c43.4-23.9,75.9-49.7,121.2-19c46.7,31.7,74.4,59.9,116.8,28.8
	c35.7-26.2,71.6-70.5,124.9-33.5c53.6,37.2,80,66.1,128.9,32.5c55.1-37.7,78.8-58.6,112.8-35.2c43.9,30.3,71.2,52.3,135.8,30.6
	s54.6-19.7,100.3-4.7c49.7,16.4,152.3,26.6,283.7,149.6c155.3,144.5,302.2,156.3,731.3,156.6"/>
    <path class="line line6" d="M3.1,474.6c287.7,0,507.6-0.3,685.8-50.7l5.4-1.5c32.5-9.5,63.8-20.6,93.7-33.8
	c104.9-46.2,143.2-57.8,238.3-62.2c66-3.1,73.4-7.1,115.7-20.7c42.5-13.5,63.9-6.3,96.1,17.8c61.9,46.4,75.6,15.9,140.6-25.7
	c49.2-31.3,81.4,11.4,124.2,40.1c42.8,28.8,68.7-1.5,128.2-40.6c46.7-30.7,66.3,8.5,112.1,34.7c65.1,37.3,92.9-18.3,134.9-24.3
	c41.9-6,49.8,2.9,99.5,13.2c49.9,10.3,149,5.4,282.2,69.9c151.1,72.5,304.4,83.7,744.9,83.7"/>
</svg>
