<svg width="0" height="0" class="hidden iconset">
    <symbol fill="none" xmlns="http://www.w3.org/2000/svg" viewBox="0 0 24 24" id="menu">
        <g clip-path="url(#clip0_429_11066)">
            <path d="M3 6.00092H21M3 12.0009H21M3 18.0009H21" stroke="#292929" stroke-width="2.5" stroke-linecap="round"
                  stroke-linejoin="round"></path>
        </g>
        <defs>
            <clipPath id="clip0_429_11066">
                <rect width="24" height="24" fill="white" transform="translate(0 0.000915527)"></rect>
            </clipPath>
        </defs>
    </symbol>
    <symbol xmlns="http://www.w3.org/2000/svg" viewBox="0 0 1024 1024" id="close">
        <path
              d="M195.2 195.2a64 64 0 0 1 90.496 0L512 421.504 738.304 195.2a64 64 0 0 1 90.496 90.496L602.496 512 828.8 738.304a64 64 0 0 1-90.496 90.496L512 602.496 285.696 828.8a64 64 0 0 1-90.496-90.496L421.504 512 195.2 285.696a64 64 0 0 1 0-90.496z"></path>
    </symbol>
    <symbol xmlns="http://www.w3.org/2000/svg" viewBox="0 0 15.668 13.42" id="arrow">
        <path id="arrow-small-left" d="M20.549,11.6H9.357l3.682-3.682a1.12,1.12,0,1,0-1.578-1.589l-4.8,4.812A2.238,2.238,0,0,0,6,12.715H6a2.238,2.238,0,0,0,.66,1.567l4.8,4.812A1.12,1.12,0,1,0,13.039,17.5L9.357,13.834H20.549a1.119,1.119,0,0,0,0-2.238Z" transform="translate(-6 -5.999)"></path>
    </symbol>
    <symbol id="menu" xmlns="http://www.w3.org/2000/svg" viewBox="0 0 29 29">
        <path id="Path_7486" d="M6.646,13.292a6.646,6.646,0,1,1,6.646-6.646A6.646,6.646,0,0,1,6.646,13.292Zm0-9.667A3.021,3.021,0,1,0,9.667,6.646,3.021,3.021,0,0,0,6.646,3.625Z"></path>
        <path id="Path_7487" d="M283.98,13.292a6.646,6.646,0,1,1,6.646-6.646A6.646,6.646,0,0,1,283.98,13.292Zm0-9.667A3.021,3.021,0,1,0,287,6.646,3.021,3.021,0,0,0,283.98,3.625Z" transform="translate(-261.626 0)"></path>
        <path id="Path_7488" d="M6.646,290.626a6.646,6.646,0,1,1,6.646-6.646A6.646,6.646,0,0,1,6.646,290.626Zm0-9.667a3.021,3.021,0,1,0,3.021,3.021A3.021,3.021,0,0,0,6.646,280.959Z" transform="translate(0 -261.626)"></path>
        <path id="Path_7489" d="M283.98,290.626a6.646,6.646,0,1,1,6.646-6.646A6.646,6.646,0,0,1,283.98,290.626Zm0-9.667A3.021,3.021,0,1,0,287,283.98,3.021,3.021,0,0,0,283.98,280.959Z" transform="translate(-261.626 -261.626)"></path>
    </symbol>
</svg>
