<?xml version="1.0" encoding="utf-8"?>
<!-- Generator: Adobe Illustrator 27.9.0, SVG Export Plug-In . SVG Version: 6.00 Build 0)  -->
<svg version="1.1" id="Layer_1" xmlns="http://www.w3.org/2000/svg" xmlns:xlink="http://www.w3.org/1999/xlink" x="0px" y="0px"
	 viewBox="0 0 1280.2 184.1" style="enable-background:new 0 0 1280.2 184.1;" xml:space="preserve">
<path id="XMLID_58_" d="M0.3,92.1c80.3,4.6,156.3,35.8,231.6,0C286,66.4,324.2,24.5,388.8,28c71.9,3.8,139.5,41.9,200.4,72.8
	c61.3,31.1,126.3,69.1,195.7,76.2c62.6,6.4,108.5-34,161.9-58.1c24.3-10.9,49-21.2,71.9-34.4c24.9-14.3,41.6-32.8,62.2-51.9
	c48.1-44.6,142.7-16.1,199.2-13.3c0,1.8,0,2.7,0,4.5c-57.2-3-151.8-32.1-200.8,12.6c-21.2,19.3-38.4,38.6-63.4,53.6
	c-23.1,13.9-48,25-72.6,36.4c-53.1,24.7-100.3,63.6-162.7,57c-68.6-7.3-132.7-44.6-193.4-75.1c-60.1-30.3-127-67.3-198-70.2
	c-64.3-2.6-102.9,39.2-156.8,64.9c-75.7,36.2-151.5,6.8-232.4,1.4C0.3,99.4,0.3,97,0.3,92.1z"/>
<path id="XMLID_57_" d="M0.3,63.3c81.4,2.2,158.4,36.4,234.2-0.5c49.7-24.2,86.3-64.5,145.8-62C456.9,4,528.9,47.7,593,81.4
	c62.4,32.8,129.3,73.4,200.7,79.7c61.2,5.4,102.3-36.8,155.1-58.2c23.9-9.7,48.5-17.7,71.5-28.9c25.2-12.2,41.2-27.8,60.6-47
	c46.9-46.3,142.7-19.4,199.3-17.4c0,1.5,0,2.2,0,3.8c-56.5-2.4-152.1-30.1-199.2,15.9c-19.9,19.5-36.2,36-61.5,49.2
	c-23.2,12.1-47.9,21.1-72,31.4c-52.6,22.5-94.9,63.3-156.3,57.9c-71-6.3-137.4-45.9-199.7-78.1c-63.8-33-135.6-75.4-211.7-77.3
	c-59.3-1.5-96.2,38.5-146,62.6C158,111.7,81.6,78.4,0.3,75.1C0.3,70.4,0.3,68,0.3,63.3z"/>
</svg>
