<?xml version="1.0" encoding="utf-8"?>
<svg version="1.1" id="Layer_1" xmlns="http://www.w3.org/2000/svg"
     x="0px" y="0px"
     viewBox="0 0 1280 707.3" style="enable-background:new 0 0 1280 707.3;" xml:space="preserve">
<g id="XMLID_34_">
	<g id="XMLID_38_">
		<path id="XMLID_73_" d="M0,689.9c135.9-5.5,255.3-76.9,360.4-148.2c26.4-17.9,52.3-36.3,78-54.8c19.1-13.8,39.7-29.9,63.8-34.1
			c36.3-6.3,56.3,23.2,71.7,49.3c19.8,33.6,36.7,69.8,67.3,95.7c44.1,37.3,99.8,37,150.3,10.1C863.2,569.8,914,504.7,981,462.5
			c90.9-57.3,201.6-23.9,299-26.2c0,2.2,0,3.3,0,5.3c-96.8,1.4-207.3-33.6-297.9,23.6c-68.8,43.4-118.8,112.2-191.4,153
			c-51.3,28.9-106.5,28-150-12c-29.2-26.8-43.9-63-61.7-97.2c-13.4-25.7-30.7-55-65.9-48.5c-23.8,4.4-44.5,20.5-63.4,34.1
			c-26.2,18.8-52.5,37.6-79.4,55.9C262.8,623.8,139.6,700.8,0,707.3C0,700.4,0,696.9,0,689.9z"/>
        <path id="XMLID_72_" d="M0,661.1c130.7-3.6,244.7-66.2,346.6-134.5c25.9-17.3,51.2-35.2,76.2-53.3c19.2-13.9,40.3-29.3,64.8-32.2
			c37.2-4.5,61.3,25,80.1,50.8c24,32.9,44.8,69.6,79,93.6c46.7,32.7,103.9,29.2,153.5,3.5c70.5-36.5,122.1-98,188.5-138
			c87.8-52.9,197.9-21.7,291.3-24.8c0,2.5,0,3.7,0,6c-97.4,2.8-207.9-29.7-298.8,27.6c-65.9,41.6-117.1,104.4-188.1,141.1
			c-50,25.8-106,26.8-150.6-8.5c-31.8-25.2-50.1-61.3-71.5-94.6c-17-26.4-38.9-56.1-76.1-49.8c-24.4,4.1-45.1,20.2-64.3,34.1
			c-25.3,18.3-50.9,36.4-77,54C250.2,605.9,133.3,673.3,0,678.1C0,671.3,0,667.9,0,661.1z"/>
        <path id="XMLID_71_" d="M0,632.4c124.1-1.3,231.8-53.5,329.8-117.7c25.1-16.5,49.7-33.6,73.9-51.1c20.1-14.5,41.7-29.6,67.4-32.5
			c40.2-4.4,69.4,25,92.9,51.4c28.3,31.9,53.7,68.5,91.6,90.4c48.1,27.9,106.1,21.9,154.7-2.1c68.7-34,120.1-91,183.7-130.1
			c85.5-52.5,194.6-22.4,286-25.6c0,2.7,0,4,0,6.5c-92.7,3.2-202.5-27.5-289.4,25.3c-65.2,39.6-116.8,99.1-186.5,134.4
			c-49.2,24.9-106.7,29.3-154-1.3c-35.7-23.1-58.4-59.8-84.2-92.3c-20.8-26.1-47-55.5-85.4-51.1c-25,2.9-46.3,18.2-65.8,32.3
			c-24.7,17.8-49.6,35.4-75.2,52.4C239.2,588,127.9,646.2,0,648.9C0,642.3,0,639,0,632.4z"/>
        <path id="XMLID_70_" d="M0,603.6c117.5,1,219-40.3,313.3-100.3c24.5-15.6,48.2-32,71.6-48.7c21.2-15.2,43.6-30,70.5-32.8
			c43.7-4.5,78.4,25.1,106.9,52c32.9,31,63.4,67.3,105.3,87c49.5,23.3,108.3,14.3,156.1-8.8c66.8-32.3,117.3-85.6,178.4-124.1
			c82.1-51.8,189.7-22.2,277.9-24.9c0,2.8,0,4.2,0,6.9c-90.1,3-198.7-26.8-282.8,25.4c-62.5,38.8-113.5,94.1-181.4,127.3
			c-48.2,23.5-106.6,30.8-155.3,5c-39.6-21-67.2-57.4-97.5-88.9c-25.7-26.6-57.3-56.1-99-51.7c-26.2,2.8-48.1,17.8-68.7,32.6
			c-23.8,17.1-48,33.9-72.9,50C226.1,572,121.2,619.4,0,619.7C0,613.3,0,610.1,0,603.6z"/>
        <path id="XMLID_66_" d="M0,574.9c110.9,3.2,206.4-27,297.3-82.8c44.4-27.3,89.5-74.2,143.5-79.3c47.6-4.5,87.9,25.4,121.7,52.6
			c37.6,30.2,73.5,66.3,119.7,83.7c51,19.2,110.2,6.6,157.6-16.2c64.9-31.2,113.9-81.3,172.5-119.5c77.9-50.7,183.4-21.3,267.7-23.1
			c0,2.9,0,4.3,0,7c-86.5,2.4-193.2-27.1-273.4,24.2c-60,38.3-109.8,90.1-175.7,121.8c-47.6,22.9-106.6,33.5-156.8,12.1
			c-43.8-18.7-76.7-54.8-111.8-85.5c-31-27-68.2-56.7-113.6-52.2c-53.3,5.3-99.1,53.1-142.7,80.5C213.2,556.3,114.5,592.5,0,590.5
			C0,584.2,0,581.1,0,574.9z"/>
        <path id="XMLID_65_" d="M0,546.2c105.6,5.2,196.3-14.6,284.6-67.1c46.2-27.5,90.4-73.1,146.8-76c50.3-2.6,94.8,27,132.7,53.7
			c41.3,29,81.6,63.3,130.4,79.4c52.6,17.2,111.8,1.5,159.9-21.3c63.5-30,111.8-76.9,167.6-115.9c73.2-51,177.4-21.1,257.8-21.9
			c0,2.8,0,4.2,0,7c-82.2,1.4-186.6-28.1-262.3,22c-57.5,38.1-105.7,86.8-169.7,117.6c-47.4,22.8-106.6,37.3-158.3,19.9
			c-48.3-16.2-86.7-52.2-126.6-82.2c-36.3-27.3-79.2-57.4-128.8-52.9c-54.5,4.9-99.2,51.1-144.2,78.3
			c-89.3,53.9-182.2,78.8-290,74.7C0,555.2,0,552.2,0,546.2z"/>
        <path id="XMLID_64_" d="M0,517.4c50,3.3,100.5,5.6,149.6-3.7c43.5-8.2,83.7-25.7,121.2-47.1c47.9-27.3,91.1-71.4,149.1-74
			c54.5-2.4,104.3,27.9,147.3,54.9c45.8,28.7,91.4,62.9,144.5,76.8c54.6,14.3,112.8-5.9,161.6-29.3c28.9-13.9,56.2-30.8,82.1-49.1
			c27.8-19.7,52.1-43.6,79.4-63.5c68.1-49.6,170-19.5,245.4-19.1c0,2.8,0,4.2,0,6.9c-77.9,0.2-181-29.8-251.8,20.6
			c-54.7,39-102.1,84.4-164.6,114.2c-48.4,23.1-107.2,41-160.8,25.3c-50.9-14.9-93.9-49.2-137.4-78.1
			c-40.5-26.8-87.5-56.7-139.9-54.2c-57.2,2.8-100.9,47.6-147.9,75C190.8,523.7,102.6,538,0,532C0,526.2,0,523.3,0,517.4z"/>
        <path id="XMLID_62_" d="M0,488.7c47.8,3.8,96.5,9,144,3.1c41-5.1,79-19.7,114.4-39c49.5-27,91.8-70.1,151.3-71.9
			c58.8-1.8,113.3,29.2,161.1,56.6c50.1,28.6,100.6,62.9,157.9,74.9c56.7,11.8,113.3-12.8,162.9-37c27.9-13.6,54.6-29.5,79.8-47.2
			c27.1-19,49.7-42.3,75.6-62.1c63-48.2,162.7-17.8,233.1-16.3c0,2.6,0,4,0,6.6c-72.8-0.9-173.6-31.2-239.1,17.7
			c-26.6,19.8-50,43.5-77.4,62.8c-25.6,18-52.5,34.4-80.9,48.1c-49.2,23.9-106.6,46.3-162.3,33.3c-55.3-12.9-103.4-47.1-151.4-75.8
			c-45.5-27.2-97.6-57.8-154.4-55.6c-58.8,2.2-101.5,45.8-150.2,72.9c-36.4,20.3-75.4,36.3-117.6,42.9c-48.2,7.5-97.8,3.8-146.6,0.1
			C0,497.2,0,494.3,0,488.7z"/>
        <path id="XMLID_61_" d="M0,459.9c89,7.8,167.7,18.9,248-22.8c51.1-26.5,92.4-68.9,153.4-69.9c62.8-1,121.7,31.2,173.8,59.1
			c53.9,28.8,109,63.5,170.1,73.7c58.7,9.8,113.2-19.1,163.7-44.1c26.9-13.3,53-28.1,77.5-45c26.3-18.1,47.3-40.7,71.8-60.5
			c58.2-46.8,155.8-16.4,221.5-14c0,2.5,0,3.7,0,6.3c-67.9-2-166.4-32.4-226.9,15c-25.2,19.8-46.9,42.7-73.6,61.3
			c-24.8,17.3-51.2,32.6-78.6,46.1c-50.1,24.7-105.6,51.5-163.4,40.8c-59.3-11-112.3-45.4-164.5-74.1
			c-50.1-27.6-107-59.3-167.9-57.8c-60.3,1.5-102.1,44.1-152.5,70.8c-34.5,18.3-71.3,31.6-111.2,35.1C94.8,484,47,477.6,0,473.6
			C0,468.1,0,465.4,0,459.9z"/>
        <path id="XMLID_60_" d="M0,431.2c84.9,7.4,161.6,26.9,239.9-12.2c52.4-26.1,92.8-68,155.2-67.9c66.4,0.1,129.1,33.9,184.9,62.5
			c57.2,29.2,116.3,64.6,180.8,73.3c60.6,8.2,112.3-24.7,164-50.2c26-12.8,51.5-26.3,75.4-42.3c25.7-17.2,45.1-38.7,68.3-58.4
			c54-45.7,150-15.4,211.6-12.5c0,2.3,0,3.4,0,5.8c-63.4-2.7-160-33.1-215.9,13c-23.8,19.7-43.9,41.8-69.9,59.4
			c-24.2,16.4-50,30.5-76.4,43.6c-51.2,25.3-104.2,56.4-163.9,47.5c-63-9.4-120.4-44.4-176.1-73.4c-54.2-28.2-115.2-61.3-180-60.8
			c-61.8,0.5-102.6,42.5-154.4,68.8C164.2,467.8,86.7,452,0,444.4C0,439.1,0,436.5,0,431.2z"/>
        <path id="XMLID_59_" d="M0,402.4c82,6.3,157.8,32.6,234.3-4.4c53.5-25.9,92.8-67.5,156.4-66c69.5,1.7,135.1,37.5,193.9,67
			c59.7,30,122.2,66.5,189.5,74.1c61.9,7.1,110.8-29.7,163.4-54.9c25.1-12,50.2-24.1,73.5-38.9c25.2-15.9,43.2-36.2,65.1-55.6
			c50.5-44.9,145.5-15.2,203.9-12.1c0,2,0,3.1,0,5.2c-59.7-3.1-155-33.1-207,12.1c-22.5,19.5-41,40.4-66.5,56.9
			c-23.6,15.3-48.9,28.1-74.3,40.5c-52.2,25.4-102.4,60.5-163.8,53c-66.1-8.1-127.2-44-185.9-73.6c-57.6-29.1-122-64-190.2-64.9
			c-63.1-0.9-102.9,40.9-155.9,66.8C159.2,445.5,83.1,422,0,415.1C0,410.1,0,407.5,0,402.4z"/>
        <path id="XMLID_58_" d="M0,373.7c80.3,4.6,156.3,35.8,231.6,0c54.1-25.7,92.3-67.6,156.9-64.1c71.9,3.8,139.5,41.9,200.4,72.8
			c61.3,31.1,126.3,69.1,195.7,76.2c62.6,6.4,108.5-34,161.9-58.1c24.3-10.9,49-21.2,71.9-34.4c24.9-14.3,41.6-32.8,62.2-51.9
			c48.1-44.6,142.7-16.1,199.2-13.3c0,1.8,0,2.7,0,4.5c-57.2-3-151.8-32.1-200.8,12.6c-21.2,19.3-38.4,38.6-63.4,53.6
			c-23.1,13.9-48,25-72.6,36.4c-53.1,24.7-100.3,63.6-162.7,57c-68.6-7.3-132.7-44.6-193.4-75.1c-60.1-30.3-127-67.3-198-70.2
			c-64.3-2.6-102.9,39.2-156.8,64.9c-75.7,36.2-151.5,6.8-232.4,1.4C0,381,0,378.6,0,373.7z"/>
        <path id="XMLID_57_" d="M0,344.9c81.4,2.2,158.4,36.4,234.2-0.5c49.7-24.2,86.3-64.5,145.8-62c76.6,3.2,148.6,46.9,212.7,80.6
			c62.4,32.8,129.3,73.4,200.7,79.7c61.2,5.4,102.3-36.8,155.1-58.2c23.9-9.7,48.5-17.7,71.5-28.9c25.2-12.2,41.2-27.8,60.6-47
			c46.9-46.3,142.7-19.4,199.3-17.4c0,1.5,0,2.2,0,3.8c-56.5-2.4-152.1-30.1-199.2,15.9c-19.9,19.5-36.2,36-61.5,49.2
			c-23.2,12.1-47.9,21.1-72,31.4c-52.6,22.5-94.9,63.3-156.3,57.9c-71-6.3-137.4-45.9-199.7-78.1c-63.8-33-135.6-75.4-211.7-77.3
			c-59.3-1.5-96.2,38.5-146,62.6C157.7,393.3,81.3,360,0,356.7C0,352,0,349.6,0,344.9z"/>
        <path id="XMLID_56_" d="M0,316.2c81.8,1,161.4,40.1,237.9,4.2c49.9-23.4,85.8-64.5,145.3-60.9c76.5,4.7,147.9,49.9,211.6,84.4
			c61.8,33.5,128.5,75.2,199.7,81.7c60.4,5.5,99.6-38.2,153.1-55.9c23.4-7.8,47.7-12.9,70.5-21.9c25.4-10,40.7-23.5,59.5-42.3
			c47.4-47.2,144.2-24,202.3-22.7c0,1.3,0,1.9,0,3.2c-57.3-1.4-153.8-26.4-200.8,20.4c-18.9,18.8-34.4,32.9-59.6,43.8
			c-22.9,9.9-47.3,16.2-70.9,24.8c-53.1,19.4-92.9,62.9-153.5,57.4c-71.6-6.5-138.6-48.2-200.8-81.6
			c-64.1-34.5-135.9-79.7-212.8-84.4c-59.6-3.6-95.7,37.3-145.4,61.3c-76.1,36.8-154.5,0.7-236.2-0.1C0,323,0,320.7,0,316.2z"/>
        <path id="XMLID_55_" d="M0,287.5c51.4,0.4,96.1,11.4,144.6,23.2c35.4,8.6,67.3,7.1,100.6-7.2c51.1-22,85.9-63.2,146.1-59.1
			c74.9,5,143.9,50.2,205.6,85c59.1,33.4,123.3,75.3,192.5,81.3c60.1,5.2,97.1-40.1,151.2-55c23.2-6.4,47.2-8.9,70.2-15.4
			c26.5-7.5,42.1-19.9,63.1-36.5c55.8-43.9,141.3-33,206.1-30.9c0,1.7,0,2.5,0,4.1c-62.2-1.9-151.6-17.8-204.4,27.4
			c-20.2,17.3-35.5,30.2-61.6,38.6c-22.9,7.4-47,11-70.2,17.8c-54,15.8-91.6,60.6-152,55.3c-70-6.2-135.2-48-195.5-81.4
			c-62.5-34.7-132.5-79.9-208.1-84.8c-60-3.9-95.2,37.2-145.9,59.9c-32.9,14.7-64.7,17.6-100.2,10c-47.8-10.3-92-21-142.2-21.4
			C0,293.9,0,291.8,0,287.5z"/>
        <path id="XMLID_54_" d="M0,258.7c54.8,0.3,101.3,12.5,152,28.5c35.3,11.2,67.5,13.9,102.4,0.4c52-20,86-61.6,146.2-57.1
			c72.6,5.4,138.4,50.6,197.3,85.8c55.7,33.3,116.7,75.5,183,81.1c59.7,5.1,94.4-42.8,149-54.6c23.3-5,47.3-5.2,70.7-9.3
			c27.8-4.9,44.6-16.2,67.6-31.2c62.6-40.7,140.8-44.2,211.8-42.1c0,2,0,3,0,4.9c-68.8-2.2-149.3-4.1-209.5,37.8
			c-22.3,15.5-38.6,27.2-65.9,33c-23.2,4.9-47.1,6-70.4,11.5c-54.4,12.9-89.9,59.8-149.8,54.7c-67.4-5.8-129.7-47.8-186.7-81.2
			c-59.9-35.1-127-80.2-200.5-85.5c-60.3-4.3-94.6,37.1-146.3,57.9c-34.4,13.8-66.4,12.7-101.7,2.4C99.4,281.1,53.5,269.4,0,269.1
			C0,264.9,0,262.8,0,258.7z"/>
        <path id="XMLID_53_" d="M0,230c58.5,0.4,107.3,13.9,160.1,34.3c35.3,13.6,68.1,20.8,105,8.4c52.4-17.6,86.1-59.8,145.8-54.9
			c69.7,5.8,131.8,51.1,187.1,86.5c51.6,33.1,108.8,75.6,171.8,80.9c58.9,4.9,91.9-45.7,146.7-54.5c23.9-3.8,48-1.8,71.8-3.7
			c29.3-2.4,47.8-12.4,72.8-26.3c68.1-37.9,142.5-56.9,218.9-55.9c0,2.2,0,3.3,0,5.5c-74.6-1.4-150,12.1-216.3,50.9
			c-24.3,14.3-42.2,24.7-71,27.9c-23.7,2.7-47.7,1.4-71.4,5.6c-54.7,9.8-88.3,59.5-147.5,54.5c-64.2-5.4-122.8-47.8-175.9-80.9
			c-56.6-35.4-120-80.6-190.8-86.3c-60-4.8-93.7,37.2-146,55.6c-36.2,12.8-68.8,7.2-104-5.6c-52-18.9-100-31.9-157.2-32.3
			C0,235.9,0,233.9,0,230z"/>
        <path id="XMLID_52_" d="M0,201.2c62.5,0.6,114,15.8,168.8,40.6c35.4,16,69.1,27.9,108.1,16.9c52.6-14.8,86.2-57.9,145-52.4
			c66.4,6.1,124.2,51.6,175.4,87.3c46.9,32.7,99.9,75.7,159.3,80.7c57.8,4.8,89.2-48.7,144.2-54.7c24.6-2.7,49.1,1.6,73.5,1.7
			c30.9,0.1,51.4-8.5,78.6-21.8c72.9-35.7,146-70.9,227.2-71.5c0,2.3,0,3.5,0,5.7c-79.7,0.1-153,29.9-224.4,66.2
			c-26.5,13.5-46.3,22.5-76.7,23.2c-24.2,0.6-48.6-3-72.9,0.1c-54.9,6.9-86.8,59.5-145,54.6c-60.6-5-115-47.9-163.5-80.7
			C545,261.4,485.7,216,418.2,210c-59.1-5.3-92.7,37.5-145.3,53.2c-38.3,11.5-71.7,1.1-107-14.1c-54.1-23.3-104.7-38-165.9-38.5
			C0,206.9,0,205,0,201.2z"/>
        <path id="XMLID_51_" d="M0,172.5c66.6,1,121.1,18.1,178.1,47.3c35.6,18.2,70.4,35,111.6,25.7c52.5-11.9,86.5-55.8,143.9-49.9
			c62.9,6.5,116.1,52.1,162.8,87.9c42,32.2,90.3,75.8,145.8,80.4c25.4,2.1,47.2-6.7,66.5-22.1c23-18.3,45-31.2,75-33.1
			c25.4-1.6,50.5,4.6,75.5,6.8c32.5,2.9,55.4-4.6,84.7-17.5c77.8-34.1,150.5-85.7,236.1-88.3c0,2.3,0,3.5,0,5.7
			c-84.2,2-157,48.5-233.3,83c-28.5,12.9-50.8,20.9-82.8,18.8c-24.8-1.6-49.7-7.2-74.9-5.2c-29.7,2.3-51.7,15.1-74.6,33.2
			c-19.7,15.5-42,24-67.7,21.9c-56.8-4.7-106.5-48.1-150.1-80.5c-48.2-35.8-102.8-81.4-166.8-87.8c-57.9-5.8-91.7,37.9-144.3,50.7
			c-40.5,9.9-75-5.4-110.4-23C118.8,198.7,65.3,182.2,0,181.4C0,177.8,0,176,0,172.5z"/>
        <path id="XMLID_50_" d="M0,143.7c70.9,1.4,128.5,20.6,187.7,54.3c35.9,20.4,72,42.2,115.4,34.8c52.2-8.9,86.8-53.6,142.8-47.3
			c59.4,6.8,107.7,52.6,149.7,88.4c36.8,31.4,80.3,75.7,131.8,79.9c24.4,2,44.5-7.9,62.5-22.9c23-19.2,45.5-32.4,76.2-32.9
			c26.4-0.5,52,7.9,77.6,11.9c34.1,5.4,59.3-0.7,90.9-13.3c48.4-19.3,91.9-42.8,135.6-69.9c35.4-22,68.2-33.7,109.8-35.9
			c0,2.2,0,3.3,0,5.6c-40.9,1.9-74.2,12.7-109.6,33.3c-43.3,25.2-86.2,48-133.1,67.2c-30.9,12.6-55.4,19.1-89.1,14.5
			c-25.5-3.5-50.9-11.2-77-10.4c-30.5,1-52.8,14-75.8,33c-18.4,15.2-39,24.7-63.7,22.7c-52.7-4.3-97.6-48.4-136-80.1
			c-43.4-35.8-93.2-81.6-153.6-88.3c-56.4-6.2-90.8,38.2-143.1,48c-42.8,8-78.5-12.3-114.3-32.1C126.3,172,69.7,153.4,0,152.2
			C0,148.8,0,147.1,0,143.7z"/>
        <path id="XMLID_49_" d="M0,115c75.4,1.9,136.1,23.4,197.5,61.5c36.4,22.6,73.8,49.3,119.4,44c52-6,87.2-51.3,141.7-44.7
			c55.8,6.8,99.4,53.1,136.5,88.7c31.7,30.4,70.1,75.6,117.7,79.2c23.3,1.8,41.8-9.2,58.5-23.8c22.7-19.9,46-33.9,77.3-32.7
			c27.4,1,53.4,11.2,79.7,17c35.8,7.9,63.1,3.4,97.1-9c53.2-19.5,99.3-45.1,144-78.7c35.2-26.5,66.3-41.1,110.7-44.3
			c0,2.1,0,3.1,0,5.2c-43.6,2.9-75.2,16.8-110.5,42c-44.4,31.8-89.8,56.8-141.7,76.2c-33.3,12.5-60.1,17.4-95.4,10.2
			c-26.2-5.3-52-14.9-79.2-15.6c-31-0.8-54.2,13.1-77,32.8c-17,14.7-36,25.4-59.6,23.6c-48.7-3.8-88.5-48.8-121.6-79.4
			c-38.5-35.6-83.4-81.9-140.2-88.6c-54.9-6.5-89.9,38.6-142,45.4c-45,5.9-82.1-19.4-118.3-41.4C134,145.6,74.1,124.7,0,123
			C0,119.8,0,118.2,0,115z"/>
        <path id="XMLID_45_" d="M0,86.2c79,2.4,143.2,25.9,206.1,68c36.6,24.5,75.2,56.2,122.4,54.2c55.2-2.3,92.4-52.6,149.5-41.2
			c49.5,9.9,86.1,53.6,117.4,87.6c26.3,28.6,60,74.4,103,78.4c24.9,2.3,42.4-13,59-28.3c22.1-20.4,46.8-32,77.5-28.8
			c28.1,3,54.2,15.3,81,22.6c37.7,10.3,68.4,5.9,105-6.8c56.5-19.5,104.6-47.4,148.6-86.5C1204,175,1233.2,158,1280,154
			c0,1.9,0,2.8,0,4.7c-46.1,3.8-75.7,20.1-110.4,49.6c-44,37.5-91.2,64.8-146.6,84.3c-36,12.6-66.2,17.5-103.4,7.9
			c-26.7-6.9-52.7-18.6-80.6-21.2c-30.7-2.9-55.2,8.7-77.3,28.9c-17,15.5-34.7,30.4-60,28c-44-4.2-78.9-49.7-106.5-78.7
			c-32.4-34-70.3-77.8-120.5-87.6c-57.5-11.2-94.4,38.8-149.8,41.9c-46.6,2.6-85-27.9-121.3-51.8C141.2,118.8,77.9,96,0,93.7
			C0,90.7,0,89.2,0,86.2z"/>
        <path id="XMLID_44_" d="M0,57.5c83.4,3,150.9,29,215.9,75.4c37.3,26.7,77.1,63,126.4,63.6c54.8,0.6,93.1-50.5,148.6-38.7
			c46.6,9.9,78.8,53.6,105.7,87.3c21.4,26.7,50.8,74.1,90,77.2c23.9,1.8,40-14.9,55.4-29.6c21.9-21.1,46.9-32.8,78-28
			c28.9,4.5,55.2,19,82.5,28.1c39.1,13.1,71.8,10.2,110.9-2.4c60.7-19.6,112-49.2,155.9-94.3c11.9-12.3,23.3-25.3,37.1-35.5
			c22.6-16.8,46.4-20.9,73.7-23.4c0,1.6,0,2.4,0,4c-27.1,2.5-50.8,6.5-73.4,22.7c-13.8,9.9-25.4,22.6-37.4,34.5
			c-43.9,43.7-94.4,72.8-154.1,92.5c-38.5,12.6-70.7,15.9-109.5,3.5c-27.2-8.7-53.4-22.6-82.2-26.7c-31-4.4-55.9,7.3-77.9,28.2
			c-15.7,14.9-32,31.2-56.2,29.3c-40.1-3.2-70.6-50.4-93.1-77.5c-28-33.7-61.2-77.5-108.5-87.4c-55.9-11.7-93.9,39.2-148.8,39.3
			c-48.8,0.1-88.3-35.1-125.4-61.3C149,92.7,82.4,67.4,0,64.5C0,61.7,0,60.3,0,57.5z"/>
        <path id="XMLID_43_" d="M0,28.7c87.8,3.6,158.4,32.1,225.4,82.7c38.2,28.8,78.9,69.7,130.2,72.8c54.7,3.3,93.9-48.4,148.3-36.4
			c44.2,9.8,72.3,53.4,95.4,86.6c17.3,24.9,42.2,73.3,78.3,75.6c22.8,1.4,38.3-17,52.4-31.1c21.6-21.7,46.7-33.4,77.8-27
			c29.5,6.1,55.7,22.9,83.2,33.9c40.3,16,74.6,14.9,116.1,2.4c64.6-19.5,119.3-50.4,162.6-101.1c11.4-13.4,22-27.9,35.5-39.3
			c22.3-19,46.6-23.2,75-25.9c0,1.3,0,1.9,0,3.3c-28.2,2.7-52.3,6.9-74.7,25.4c-13.6,11.2-24.3,25.3-35.8,38.5
			c-43.4,49.5-97.4,80.1-161.1,99.7c-40.9,12.5-74.9,14.1-114.9-1.2c-27.5-10.5-53.7-26.8-83.1-32.5c-31.1-6.1-56.2,5.7-77.9,27.2
			c-14.3,14.2-30,32.3-53,30.8c-36.8-2.4-62.7-50.6-80.8-76c-23.9-33.3-52.9-76.9-97.6-86.8c-54.6-12-93.6,39.6-148.3,36.9
			c-50.8-2.5-91.4-42.4-129.4-70.7C156.7,66.7,86.8,38.8,0,35.3C0,32.7,0,31.4,0,28.7z"/>
        <path id="XMLID_41_" d="M0,0c92.1,4.2,165.7,35.2,234.5,89.9c39,31,80.6,76.2,133.7,82c55,5.9,94.8-46.5,148.7-34.3
			c42.3,9.5,66.9,52.7,86.7,85.5c13.9,23,34.8,72.2,68.2,73.5c21.8,0.9,37.1-19.3,50.1-32.8c21.2-22.1,45.8-33.8,76.8-25.5
			c29.9,8,55.7,27.2,83.2,40c41.1,19.2,76.7,19.8,120.4,7.6c67.9-19,126.4-50.8,168.5-106.7c10.9-14.4,20.4-30,33.5-42.6
			c21.9-21,46.6-24.9,75.8-27.6c0,1,0,1.5,0,2.5c-29,2.7-53.6,6.7-75.6,27.4c-13.2,12.3-23,27.7-34,41.9
			c-42.4,54.8-100.1,86.5-167.3,105.7c-43.2,12.3-78.6,12-119.6-6.4c-27.5-12.4-53.4-31.1-83.2-38.7c-31-7.9-55.8,3.8-77,25.9
			c-13.2,13.6-28.5,33.5-50.5,32.5c-33.9-1.5-55.6-50.6-70.1-74c-20.4-32.9-45.7-76.1-88.4-85.7c-54-12.1-93.7,40.1-148.6,34.7
			c-52.8-5.2-94.1-49.5-133-80C164.2,40.6,91.2,10.1,0,6.1C0,3.7,0,2.4,0,0z"/>
	</g>
</g>
</svg>
