<?xml version="1.0" encoding="utf-8"?>

<svg version="1.1" id="Layer_1" xmlns="http://www.w3.org/2000/svg" x="0px" y="0px"
     viewBox="0 0 3007.9 354.4"   xml:space="preserve">

    <path  stroke-linecap="round" stroke-linejoin="miter" fill-opacity="0" stroke-miterlimit="4"
		  stroke="#076EFF" stroke-opacity="1" stroke-width="6"
		  d="M0,3.1c361.9-0.1,589.9-10,783.9,162.3c61.6,54.7,112.7,91.6,156.7,113.4l-0.2-0.1
	c34.1,18.2,63.9,27.6,90.8,29.5c54.9,3.6,78.9-11,116.4-1.6s75.8,55.9,120.3,36.1c47.2-20.2,74.1-61.5,116-49.8
	c35.5,9.5,75.2,73.8,124,55.1c50.5-18.5,75.8-73.4,128-53.9c51.4,19.5,68.6,60.3,112,53.9c42.5-6.2,64.2-55.7,134.5-43.5
	c42.7,7.3,56.8,23.8,99.7,11.8c55-14.3,159.2-36.5,281.7-150.6c161.9-150.6,304-157.5,744-157.5"/>


</svg>
